<svg width="640" height="520" viewBox="0 0 640 520" fill="none" xmlns="http://www.w3.org/2000/svg">
  <rect width="640" height="520" rx="40" fill="url(#paint0_linear)"/>
  <circle cx="120" cy="120" r="90" fill="url(#paint1_radial)"/>
  <circle cx="510" cy="160" r="120" fill="url(#paint2_radial)"/>
  <path d="M80 360C160 300 280 300 360 360C440 420 560 420 600 360" stroke="rgba(255,255,255,0.5)" stroke-width="12" stroke-linecap="round"/>
  <path d="M100 400C180 340 300 340 380 400C460 460 580 460 620 400" stroke="rgba(255,255,255,0.3)" stroke-width="8" stroke-linecap="round"/>
  <rect x="90" y="210" width="180" height="160" rx="24" fill="rgba(255,255,255,0.2)"/>
  <rect x="120" y="240" width="120" height="16" rx="8" fill="rgba(255,255,255,0.7)"/>
  <rect x="120" y="270" width="80" height="12" rx="6" fill="rgba(255,255,255,0.6)"/>
  <rect x="120" y="294" width="110" height="12" rx="6" fill="rgba(255,255,255,0.6)"/>
  <rect x="120" y="318" width="70" height="12" rx="6" fill="rgba(255,255,255,0.5)"/>
  <defs>
    <linearGradient id="paint0_linear" x1="0" y1="0" x2="640" y2="520" gradientUnits="userSpaceOnUse">
      <stop stop-color="#1e3a8a"/>
      <stop offset="0.5" stop-color="#0f172a"/>
      <stop offset="1" stop-color="#7c2d12"/>
    </linearGradient>
    <radialGradient id="paint1_radial" cx="0" cy="0" r="1" gradientUnits="userSpaceOnUse" gradientTransform="translate(120 120) rotate(90) scale(90)">
      <stop stop-color="#38bdf8"/>
      <stop offset="1" stop-color="#38bdf8" stop-opacity="0"/>
    </radialGradient>
    <radialGradient id="paint2_radial" cx="0" cy="0" r="1" gradientUnits="userSpaceOnUse" gradientTransform="translate(510 160) rotate(90) scale(120)">
      <stop stop-color="#f97316"/>
      <stop offset="1" stop-color="#f97316" stop-opacity="0"/>
    </radialGradient>
  </defs>
</svg>
